<svg xmlns="http://www.w3.org/2000/svg" viewBox="0 0 680.315 255.118">

	<defs>
		<style>.cls-1{fill:#424242;}</style>
	</defs>

	<path class="cls-1" d="M152.143,150.469v41.3H131.227V153.687c0-11.665-5.364-17.028-14.615-17.028-10.056,0-17.3,6.168-17.3,19.441v35.665H78.4V92.279H99.315v34.86c5.632-5.632,13.677-8.581,22.928-8.581C139.271,118.558,152.143,128.48,152.143,150.469Z"/>
	<path class="cls-1" d="M158.448,155.7c0-21.721,16.76-37.14,39.688-37.14s39.553,15.419,39.553,37.14-16.626,37.14-39.553,37.14S158.448,177.419,158.448,155.7Zm58.056,0c0-12.469-7.91-19.978-18.368-19.978s-18.5,7.509-18.5,19.978,8.044,19.977,18.5,19.977S216.5,168.168,216.5,155.7Z"/>
	<path class="cls-1" d="M291.928,188.279c-4.291,3.084-10.593,4.559-17.029,4.559-17.027,0-26.949-8.715-26.949-25.877V137.329H236.821V121.24H247.95V103.675h20.916V121.24h17.967v16.089H268.866v29.363c0,6.168,3.352,9.521,8.983,9.521a14.1,14.1,0,0,0,8.447-2.682Z"/>
	<path class="cls-1" d="M379.792,131.966c0,20.916-15.687,33.922-40.76,33.922h-18.9v25.877H298.406V97.91h40.626C364.105,97.91,379.792,110.916,379.792,131.966Zm-21.989,0c0-10.324-6.7-16.358-19.978-16.358h-17.7V148.19h17.7C351.1,148.19,357.8,142.156,357.8,131.966Z"/>
	<path class="cls-1" d="M386.54,92.279h20.917v99.486H386.54Z"/>
	<path class="cls-1" d="M483.346,150.6v41.162H463.77v-8.983c-3.888,6.57-11.4,10.056-21.988,10.056-16.895,0-26.95-9.385-26.95-21.855,0-12.737,8.983-21.587,30.972-21.587h16.625c0-8.983-5.362-14.212-16.625-14.212-7.642,0-15.553,2.547-20.782,6.7l-7.509-14.615c7.91-5.631,19.575-8.715,31.107-8.715C470.608,118.558,483.346,128.748,483.346,150.6Zm-20.917,18.369V161.6H448.084c-9.789,0-12.873,3.62-12.873,8.448,0,5.228,4.425,8.714,11.8,8.714C453.983,178.759,460.016,175.542,462.429,168.972Z"/>
	<path class="cls-1" d="M540.921,188.279c-4.29,3.084-10.591,4.559-17.027,4.559-17.028,0-26.95-8.715-26.95-25.877V137.329H485.815V121.24h11.129V103.675H517.86V121.24h17.967v16.089H517.86v29.363c0,6.168,3.352,9.521,8.983,9.521a14.108,14.108,0,0,0,8.448-2.682Z"/>
	<path class="cls-1" d="M614.9,161.6h-54.57c2.011,8.984,9.653,14.481,20.648,14.481,7.643,0,13.14-2.279,18.1-6.972L610.2,181.174c-6.7,7.641-16.761,11.664-29.766,11.664-24.939,0-41.162-15.687-41.162-37.14,0-21.587,16.491-37.14,38.48-37.14,21.185,0,37.542,14.212,37.542,37.408C615.3,157.575,615.03,159.854,614.9,161.6Zm-54.838-12.2h35.53c-1.474-9.117-8.312-15.016-17.7-15.016C568.371,134.38,561.533,140.145,560.058,149.4Z"/>

</svg>