<svg xmlns="http://www.w3.org/2000/svg" viewBox="0 0 255.118 255.118">

	<defs>
		<style>.cls-1{fill:url(#linear-gradient);}.cls-2{fill:#f2f1e6;}.cls-3{fill:#f6f5f0;}.cls-4{fill:#e53f56;}</style>
		<linearGradient id="linear-gradient" x1="49.203" y1="158.825" x2="207.264" y2="158.825" gradientUnits="userSpaceOnUse">
			<stop offset="0" stop-color="#fff"/>
			<stop offset="0.014" stop-color="#fefefe"/>
			<stop offset="0.329" stop-color="#f1f1eb"/>
			<stop offset="0.654" stop-color="#e9e9e0"/>
			<stop offset="1" stop-color="#e6e6dc"/>
		</linearGradient>
	</defs>

	<circle class="cls-1" cx="128.233" cy="158.825" r="79.031"/>
	<circle class="cls-2" cx="128.233" cy="158.825" r="79.031"/>
	<circle class="cls-3" cx="128.234" cy="158.825" r="47.171"/>
	<path class="cls-4" d="M198.09,111.929C196.128,64.02,157.06,24.7,134.941,17.285a1.3,1.3,0,0,0-1.655,1.583,55.582,55.582,0,0,1,1.64,13.4A56.3,56.3,0,0,1,98.255,84.849a85.955,85.955,0,0,1-7.484-25.316,1.3,1.3,0,0,0-2-.934A69.611,69.611,0,0,0,63.979,88.3l.045.017a67.989,67.989,0,0,0-5.75,27.354c0,38.184,31.322,69.138,69.961,69.138s69.96-30.954,69.96-69.138C198.2,114.412,198.157,113.167,198.09,111.929Z"/>

</svg>