<svg xmlns="http://www.w3.org/2000/svg" viewBox="0 0 255.118 255.118">

	<defs>
		<style>.cls-1{fill:url(#linear-gradient);}.cls-2{fill:url(#linear-gradient-2);}.cls-3{fill:url(#linear-gradient-3);}.cls-4{fill:url(#linear-gradient-4);}</style>
		<linearGradient id="linear-gradient" x1="49.203" y1="158.825" x2="207.264" y2="158.825" gradientUnits="userSpaceOnUse">
			<stop offset="0" stop-color="#fff"/>
			<stop offset="0.014" stop-color="#fefefe"/>
			<stop offset="0.329" stop-color="#f1f1eb"/>
			<stop offset="0.654" stop-color="#e9e9e0"/>
			<stop offset="1" stop-color="#e6e6dc"/>
		</linearGradient>
		<linearGradient id="linear-gradient-2" x1="49.203" y1="158.825" x2="207.264" y2="158.825" gradientUnits="userSpaceOnUse">
			<stop offset="0" stop-color="#f6f5f1"/>
			<stop offset="0.146" stop-color="#f1f1eb"/>
			<stop offset="0.559" stop-color="#e9e9e0"/>
			<stop offset="1" stop-color="#e6e6dc"/>
		</linearGradient>
		<linearGradient id="linear-gradient-3" x1="-357.196" y1="-551.283" x2="-262.854" y2="-551.283" gradientTransform="translate(-423.049 468.849) rotate(90)" gradientUnits="userSpaceOnUse">
			<stop offset="0" stop-color="#fafbf6"/>
			<stop offset="1" stop-color="#e6e5db"/>
		</linearGradient>
		<linearGradient id="linear-gradient-4" x1="185.101" y1="58.813" x2="79.061" y2="164.853" gradientUnits="userSpaceOnUse">
			<stop offset="0" stop-color="#f6b07d"/>
			<stop offset="0.099" stop-color="#f39978"/>
			<stop offset="0.27" stop-color="#f07772"/>
			<stop offset="0.445" stop-color="#ed5c6d"/>
			<stop offset="0.623" stop-color="#eb4969"/>
			<stop offset="0.806" stop-color="#e93e67"/>
			<stop offset="1" stop-color="#e93a66"/>
		</linearGradient>
	</defs>

	<circle class="cls-1" cx="128.233" cy="158.825" r="79.031"/>
	<circle class="cls-2" cx="128.233" cy="158.825" r="79.031"/>
	<circle class="cls-3" cx="128.234" cy="158.825" r="47.171"/>
	<path class="cls-4" d="M198.09,111.929C196.128,64.02,157.06,24.7,134.941,17.285a1.3,1.3,0,0,0-1.655,1.583,55.582,55.582,0,0,1,1.64,13.4A56.3,56.3,0,0,1,98.255,84.849a85.955,85.955,0,0,1-7.484-25.316,1.3,1.3,0,0,0-2-.934A69.611,69.611,0,0,0,63.979,88.3l.045.017a67.989,67.989,0,0,0-5.75,27.354c0,38.184,31.322,69.138,69.961,69.138s69.96-30.954,69.96-69.138C198.2,114.412,198.157,113.167,198.09,111.929Z"/>

</svg>