<svg xmlns="http://www.w3.org/2000/svg" viewBox="0 0 255.118 255.118">

	<defs>
		<style>.cls-1{fill:url(#linear-gradient);}.cls-2{fill:url(#linear-gradient-2);}.cls-3{fill:url(#linear-gradient-3);}.cls-4{fill:url(#linear-gradient-4);}</style>
		<linearGradient id="linear-gradient" x1="49.203" y1="158.825" x2="207.264" y2="158.825" gradientUnits="userSpaceOnUse">
			<stop offset="0" stop-color="#fff"/>
			<stop offset="0.105" stop-color="#fbfbfb"/>
			<stop offset="0.538" stop-color="#f0f0f0"/>
			<stop offset="1" stop-color="#ececec"/>
		</linearGradient>
		<linearGradient id="linear-gradient-2" x1="49.203" y1="158.825" x2="207.264" y2="158.825" gradientUnits="userSpaceOnUse">
			<stop offset="0" stop-color="#f9f9f9"/><stop offset="0.105" stop-color="#f5f5f5"/>
			<stop offset="0.538" stop-color="#eaeaea"/>
			<stop offset="1" stop-color="#e6e6e6"/>
		</linearGradient>
		<linearGradient id="linear-gradient-3" x1="-640.66" y1="-834.747" x2="-546.318" y2="-834.747" gradientTransform="translate(-706.514 752.314) rotate(90)" gradientUnits="userSpaceOnUse">
			<stop offset="0" stop-color="#fcfcfc"/>
			<stop offset="1" stop-color="#e6e6e6"/>
		</linearGradient>
		<linearGradient id="linear-gradient-4" x1="185.101" y1="58.813" x2="79.061" y2="164.853" gradientUnits="userSpaceOnUse">
			<stop offset="0" stop-color="#b9b9b9"/>
			<stop offset="0.134" stop-color="#a4a4a4"/>
			<stop offset="0.341" stop-color="#898989"/>
			<stop offset="0.552" stop-color="#767676"/>
			<stop offset="0.769" stop-color="#6b6b6b"/>
			<stop offset="1" stop-color="#676767"/>
		</linearGradient>
	</defs>

	<circle class="cls-1" cx="128.233" cy="158.825" r="79.031"/>
	<circle class="cls-2" cx="128.233" cy="158.825" r="79.031"/>
	<circle class="cls-3" cx="128.234" cy="158.825" r="47.171"/>
	<path class="cls-4" d="M198.09,111.929C196.128,64.02,157.06,24.7,134.941,17.285a1.3,1.3,0,0,0-1.655,1.583,55.582,55.582,0,0,1,1.64,13.4A56.3,56.3,0,0,1,98.255,84.849a85.955,85.955,0,0,1-7.484-25.316,1.3,1.3,0,0,0-2-.934A69.611,69.611,0,0,0,63.979,88.3l.045.017a67.989,67.989,0,0,0-5.75,27.354c0,38.184,31.322,69.138,69.961,69.138s69.96-30.954,69.96-69.138C198.2,114.412,198.157,113.167,198.09,111.929Z"/>

</svg>