<svg xmlns="http://www.w3.org/2000/svg" viewBox="0 0 680.315 255.118">

	<defs>
		<style>.cls-1{fill:url(#linear-gradient);}.cls-2{fill:url(#linear-gradient-2);}.cls-3{fill:url(#linear-gradient-3);}.cls-4{fill:url(#linear-gradient-4);}.cls-5{fill:#cccccb;}.cls-6{fill:#424242;}</style>
		<linearGradient id="linear-gradient" x1="46.406" y1="158.823" x2="204.467" y2="158.823" gradientUnits="userSpaceOnUse">
			<stop offset="0" stop-color="#fff"/>
			<stop offset="0.014" stop-color="#fefefe"/>
			<stop offset="0.329" stop-color="#f1f1eb"/>
			<stop offset="0.654" stop-color="#e9e9e0"/>
			<stop offset="1" stop-color="#e6e6dc"/>
		</linearGradient>
		<linearGradient id="linear-gradient-2" x1="46.406" y1="158.823" x2="204.467" y2="158.823" gradientUnits="userSpaceOnUse">
			<stop offset="0" stop-color="#f6f5f1"/>
			<stop offset="0.146" stop-color="#f1f1eb"/>
			<stop offset="0.559" stop-color="#e9e9e0"/>
			<stop offset="1" stop-color="#e6e6dc"/>
		</linearGradient>
		<linearGradient id="linear-gradient-3" x1="55.201" y1="450.584" x2="149.543" y2="450.584" gradientTransform="translate(576.021 56.452) rotate(90)" gradientUnits="userSpaceOnUse">
			<stop offset="0" stop-color="#fafbf6"/>
			<stop offset="1" stop-color="#e6e5db"/>
		</linearGradient>
		<linearGradient id="linear-gradient-4" x1="182.305" y1="58.812" x2="76.265" y2="164.851" gradientUnits="userSpaceOnUse">
			<stop offset="0" stop-color="#f6b07d"/>
			<stop offset="0.099" stop-color="#f39978"/>
			<stop offset="0.27" stop-color="#f07772"/>
			<stop offset="0.445" stop-color="#ed5c6d"/>
			<stop offset="0.623" stop-color="#eb4969"/>
			<stop offset="0.806" stop-color="#e93e67"/>
			<stop offset="1" stop-color="#e93a66"/>
		</linearGradient>
	</defs>

	<circle class="cls-1" cx="125.437" cy="158.823" r="79.031"/>
	<circle class="cls-2" cx="125.437" cy="158.823" r="79.031"/>
	<circle class="cls-3" cx="125.437" cy="158.823" r="47.171"/>
	<path class="cls-4" d="M195.293,111.928c-1.962-47.91-41.03-87.232-63.149-94.645a1.3,1.3,0,0,0-1.655,1.584,55.525,55.525,0,0,1,1.64,13.4,56.3,56.3,0,0,1-36.67,52.583,85.961,85.961,0,0,1-7.484-25.317,1.3,1.3,0,0,0-2.006-.934,69.623,69.623,0,0,0-24.787,29.7l.045.017a68.009,68.009,0,0,0-5.749,27.354c0,38.184,31.322,69.139,69.96,69.139s69.96-30.955,69.96-69.139C195.4,114.411,195.36,113.165,195.293,111.928Z"/>
	<path class="cls-5" d="M38.18,121.184c-1.247-2.749-4.744-8.406-8.669-8.406s-7.421,5.657-8.668,8.406a37.145,37.145,0,0,0-2.89,12.609c0,2.587.551,6.746,1.927,8.406,1.677,2.022,7.551,4.244,7.551,6.871h0c-.148,3-.334,6.787-.538,10.948-.606,12.336-.844,27.864-1.205,35.216-.2,3.993-1.128,14.915-1.372,17.74a1.72,1.72,0,0,0,.39,1.255c.826.995,2.7,2.922,4.805,2.922s3.98-1.927,4.806-2.922a1.724,1.724,0,0,0,.39-1.255c-.244-2.825-1.176-13.747-1.372-17.74-.361-7.352-.6-22.88-1.2-35.216-.2-4.161-.39-7.95-.538-10.948h0c0-2.627,5.874-4.849,7.551-6.871,1.376-1.66,1.927-5.819,1.927-8.406A37.145,37.145,0,0,0,38.18,121.184Z"/>
	<path class="cls-5" d="M229.674,113.234a.517.517,0,0,0-.52-.456h-.963a.525.525,0,0,0-.525.525v19.239a1.434,1.434,0,0,1-1.448,1.251,1.338,1.338,0,0,1-1.349-1.251V113.478a.7.7,0,0,0-.7-.7h-.905a.7.7,0,0,0-.7.7v19.064a1.353,1.353,0,0,1-2.7,0V113.478a.7.7,0,0,0-.7-.7h-.9a.7.7,0,0,0-.7.7v19.064a1.338,1.338,0,0,1-1.349,1.251,1.433,1.433,0,0,1-1.447-1.251V113.3a.526.526,0,0,0-.526-.525h-.962a.517.517,0,0,0-.521.456c-.336,2.868-2.125,18.447-1.873,23.228.114,2.143.253,4.047,1.577,5.737,1.5,1.911,6.675,4.443,6.675,6.871h.086c-.435,11.886-1.346,36.332-1.829,46.164-.2,3.993-1.128,14.913-1.372,17.74a1.721,1.721,0,0,0,.391,1.255c.826.995,2.7,2.922,4.805,2.922s3.978-1.927,4.805-2.922a1.72,1.72,0,0,0,.39-1.255c-.244-2.827-1.176-13.747-1.372-17.74-.483-9.832-1.393-34.278-1.828-46.164h.085c0-2.428,5.179-4.96,6.676-6.871,1.323-1.69,1.463-3.594,1.576-5.737C231.8,131.681,230.011,116.1,229.674,113.234Z"/>
	<path class="cls-6" d="M312.628,171.328v31.177H296.837V173.757c0-8.807-4.049-12.856-11.033-12.856-7.593,0-13.059,4.657-13.059,14.678v26.926H256.954V127.4h15.791v26.319c4.252-4.252,10.325-6.479,17.31-6.479C302.911,147.235,312.628,154.727,312.628,171.328Z"/>
	<path class="cls-6" d="M317.389,175.275c0-16.4,12.654-28.04,29.963-28.04s29.862,11.641,29.862,28.04-12.552,28.04-29.862,28.04S317.389,191.674,317.389,175.275Zm43.831,0c0-9.414-5.972-15.083-13.868-15.083s-13.969,5.669-13.969,15.083,6.074,15.083,13.969,15.083S361.22,184.689,361.22,175.275Z"/>
	<path class="cls-6" d="M418.164,199.874c-3.24,2.328-8,3.441-12.856,3.441-12.856,0-20.347-6.58-20.347-19.537V161.407h-8.4V149.26h8.4V136h15.791V149.26h13.565v12.147H400.752v22.169c0,4.656,2.532,7.187,6.783,7.187a10.636,10.636,0,0,0,6.377-2.025Z"/>
	<path class="cls-6" d="M484.5,157.358c0,15.791-11.844,25.611-30.774,25.611H439.454v19.536h-16.4V131.646h30.672C472.656,131.646,484.5,141.466,484.5,157.358Zm-16.6,0c0-7.794-5.062-12.349-15.083-12.349H439.454v24.6h13.361C462.836,169.606,467.9,165.051,467.9,157.358Z"/>
	<path class="cls-6" d="M489.593,127.4h15.792v75.11H489.593Z"/>
	<path class="cls-6" d="M562.68,171.429v31.076H547.9v-6.782c-2.936,4.96-8.6,7.592-16.6,7.592-12.754,0-20.346-7.086-20.346-16.5,0-9.616,6.782-16.3,23.383-16.3h12.552c0-6.783-4.049-10.73-12.552-10.73a26.185,26.185,0,0,0-15.69,5.061l-5.669-11.034c5.973-4.251,14.779-6.58,23.485-6.58C553.063,147.235,562.68,154.929,562.68,171.429ZM546.888,185.3v-5.568H536.057c-7.389,0-9.718,2.733-9.718,6.377,0,3.949,3.341,6.58,8.909,6.58C540.511,192.686,545.066,190.257,546.888,185.3Z"/>
	<path class="cls-6" d="M606.149,199.874c-3.239,2.328-8,3.441-12.856,3.441-12.856,0-20.346-6.58-20.346-19.537V161.407h-8.4V149.26h8.4V136h15.791V149.26H602.3v12.147H588.738v22.169c0,4.656,2.53,7.187,6.782,7.187a10.636,10.636,0,0,0,6.377-2.025Z"/>
	<path class="cls-6" d="M662,179.729H620.8c1.519,6.783,7.288,10.933,15.589,10.933a18.463,18.463,0,0,0,13.666-5.264l8.4,9.11c-5.062,5.77-12.654,8.807-22.473,8.807-18.828,0-31.076-11.843-31.076-28.04,0-16.3,12.451-28.04,29.052-28.04,15.994,0,28.343,10.731,28.343,28.243C662.3,176.692,662.1,178.414,662,179.729Zm-41.4-9.211h26.825a12.941,12.941,0,0,0-13.362-11.338C626.872,159.18,621.71,163.533,620.6,170.518Z"/>

</svg>