<svg xmlns="http://www.w3.org/2000/svg" viewBox="0 0 255.118 255.118">

	<defs>
		<style>.cls-1{fill:url(#linear-gradient);}.cls-2{fill:url(#linear-gradient-2);}.cls-3{fill:url(#linear-gradient-3);}.cls-4{fill:url(#linear-gradient-4);}.cls-5{fill:#d5d5d5;}</style>
		<linearGradient id="linear-gradient" x1="49.203" y1="158.825" x2="207.264" y2="158.825" gradientUnits="userSpaceOnUse">
			<stop offset="0" stop-color="#fff"/>
			<stop offset="0.105" stop-color="#fbfbfb"/>
			<stop offset="0.538" stop-color="#f0f0f0"/>
			<stop offset="1" stop-color="#ececec"/>
		</linearGradient>
		<linearGradient id="linear-gradient-2" x1="49.203" y1="158.825" x2="207.264" y2="158.825" gradientUnits="userSpaceOnUse">
			<stop offset="0" stop-color="#f9f9f9"/>
			<stop offset="0.105" stop-color="#f5f5f5"/>
			<stop offset="0.538" stop-color="#eaeaea"/>
			<stop offset="1" stop-color="#e6e6e6"/>
		</linearGradient>
		<linearGradient id="linear-gradient-3" x1="-933.998" y1="-541.41" x2="-839.656" y2="-541.41" gradientTransform="translate(-413.176 1045.652) rotate(90)" gradientUnits="userSpaceOnUse">
			<stop offset="0" stop-color="#fcfcfc"/>
			<stop offset="1" stop-color="#e6e6e6"/>
		</linearGradient>
		<linearGradient id="linear-gradient-4" x1="185.101" y1="58.813" x2="79.061" y2="164.853" gradientUnits="userSpaceOnUse">
			<stop offset="0" stop-color="#b9b9b9"/>
			<stop offset="0.134" stop-color="#a4a4a4"/>
			<stop offset="0.341" stop-color="#898989"/>
			<stop offset="0.552" stop-color="#767676"/>
			<stop offset="0.769" stop-color="#6b6b6b"/>
			<stop offset="1" stop-color="#676767"/>
		</linearGradient>
	</defs>

	<circle class="cls-1" cx="128.233" cy="158.825" r="79.031"/>
	<circle class="cls-2" cx="128.233" cy="158.825" r="79.031"/>
	<circle class="cls-3" cx="128.234" cy="158.825" r="47.171"/>
	<path class="cls-4" d="M198.09,111.929C196.128,64.02,157.06,24.7,134.941,17.285a1.3,1.3,0,0,0-1.655,1.583,55.582,55.582,0,0,1,1.64,13.4A56.3,56.3,0,0,1,98.255,84.849a85.955,85.955,0,0,1-7.484-25.316,1.3,1.3,0,0,0-2-.934A69.611,69.611,0,0,0,63.979,88.3l.045.017a67.989,67.989,0,0,0-5.75,27.354c0,38.184,31.322,69.138,69.961,69.138s69.96-30.954,69.96-69.138C198.2,114.412,198.157,113.167,198.09,111.929Z"/>
	<path class="cls-5" d="M40.977,121.185c-1.247-2.749-4.745-8.406-8.669-8.406s-7.422,5.657-8.668,8.406a37.145,37.145,0,0,0-2.89,12.609c0,2.587.55,6.746,1.926,8.406,1.677,2.022,7.551,4.244,7.551,6.871h0c-.147,3-.333,6.787-.538,10.949-.606,12.335-.843,27.864-1.2,35.215-.2,3.993-1.128,14.915-1.372,17.741a1.715,1.715,0,0,0,.39,1.254c.826,1,2.7,2.922,4.805,2.922s3.979-1.927,4.805-2.922a1.715,1.715,0,0,0,.39-1.254c-.243-2.826-1.175-13.748-1.371-17.741-.362-7.351-.6-22.88-1.2-35.215-.2-4.162-.391-7.95-.538-10.949h0c0-2.627,5.874-4.849,7.551-6.871,1.376-1.66,1.926-5.819,1.926-8.406A37.168,37.168,0,0,0,40.977,121.185Z"/>
	<path class="cls-5" d="M232.471,113.235a.518.518,0,0,0-.521-.456h-.962a.527.527,0,0,0-.526.526v19.238a1.433,1.433,0,0,1-1.447,1.251,1.338,1.338,0,0,1-1.349-1.251V113.48a.7.7,0,0,0-.7-.7h-.9a.7.7,0,0,0-.7.7v19.063a1.353,1.353,0,0,1-2.7,0V113.48a.7.7,0,0,0-.7-.7h-.9a.7.7,0,0,0-.7.7v19.063a1.338,1.338,0,0,1-1.349,1.251,1.434,1.434,0,0,1-1.448-1.251V113.305a.526.526,0,0,0-.525-.526h-.963a.517.517,0,0,0-.52.456c-.337,2.869-2.126,18.448-1.873,23.228.114,2.144.253,4.047,1.576,5.737,1.5,1.912,6.676,4.443,6.676,6.871h.085c-.435,11.886-1.345,36.333-1.828,46.164-.2,3.993-1.128,14.914-1.372,17.74a1.719,1.719,0,0,0,.39,1.255c.827,1,2.7,2.922,4.805,2.922s3.979-1.926,4.805-2.922a1.719,1.719,0,0,0,.391-1.255c-.244-2.826-1.176-13.747-1.372-17.74-.483-9.831-1.394-34.278-1.829-46.164h.086c0-2.428,5.178-4.959,6.675-6.871,1.324-1.69,1.463-3.593,1.577-5.737C234.6,131.683,232.808,116.1,232.471,113.235Z"/>

</svg>